<svg xmlns="http://www.w3.org/2000/svg" width="300" height="300" viewBox="0 0 300 300"><g fill="none" fill-rule="evenodd" transform="translate(11 33)"><path stroke="#00FFB9" stroke-linecap="round" stroke-linejoin="round" stroke-width="1.5" d="M133.28 116.42h144.94v13.15"/><path stroke="#FFF" stroke-linecap="round" stroke-linejoin="round" stroke-width="1.5" d="M278.22 136.55v73.55H133.28v-57.53M190.13 233.08l2.47-14.88"/><path stroke="#00FFB9" stroke-linecap="round" stroke-linejoin="round" stroke-width="1.5" d="M220.64 218.05l2.49 15.03H234.03"/><path stroke="#FFF" stroke-linecap="round" stroke-linejoin="round" stroke-width="1.5" d="M177.47 233.08h5.45M215.26 233.08h.52M210.33 233.08h.52M75.41 172.29v36.15H32.54v-87.09h42.87v27.5"/><path stroke="#00FFB9" stroke-linecap="round" stroke-linejoin="round" stroke-width="1.5" d="M39.11 195.04h36.3M122.95 74.21h.95M67.9 74.21h41.08"/><path stroke="#FFF" stroke-linecap="round" stroke-linejoin="round" stroke-width="1.5" d="M102.41 81.92H74.47M141.02 74.21h53.4v7.71h-67.23M187.49 66.85v1.67M78.12 68.52V.27h109.37v62.2"/><path stroke="#00FFB9" stroke-dasharray="3" stroke-linecap="round" stroke-linejoin="round" stroke-width="1.5" d="M59.8 31.5C18.097 59.308.205 111.616 16.14 159.14" opacity=".3"/><path stroke="#FFF" stroke-linecap="round" stroke-linejoin="round" stroke-width="1.5" d="M230.08 98.77a110.6 110.6 0 0 0-24.33-50.14"/><path fill="#FFF" fill-rule="nonzero" d="M232.29 98.33a2.25 2.25 0 1 1-4.415.872 2.25 2.25 0 0 1 4.415-.872z"/><path stroke="#00FFB9" stroke-dasharray="3" stroke-linecap="round" stroke-linejoin="round" stroke-width="1.5" d="M70.43 222.39a111.11 111.11 0 0 0 94 3.62" opacity=".3"/><path stroke="#00FFB9" stroke-linecap="round" stroke-linejoin="round" stroke-width="1.5" d="M178.81 166.54l-1.22-.88"/><path stroke="#00FFB9" stroke-dasharray="2.89" stroke-linecap="round" stroke-linejoin="round" stroke-width="1.5" d="M175.24 163.98l-50.48-36.23"/><path stroke="#00FFB9" stroke-linecap="round" stroke-linejoin="round" stroke-width="1.5" d="M123.59 126.91l-1.22-.88"/><path fill="#00FFB9" fill-rule="nonzero" d="M180.13 164.7a2.26 2.26 0 1 1-2.629 3.677 2.26 2.26 0 0 1 2.629-3.677z"/><path stroke="#FFF" stroke-linecap="round" stroke-linejoin="round" stroke-width="1.5" d="M61.33 170.64l20.08-13.5 3.74-10.23 27.9-19.85"/><path fill="#FFF" fill-rule="nonzero" d="M62.59 172.52a2.26 2.26 0 1 1 .61-3.14 2.25 2.25 0 0 1-.61 3.14z"/><path stroke="#00FFB9" stroke-linecap="round" stroke-linejoin="round" stroke-width="1.5" d="M117.19 52.34v1.5"/><path stroke="#00FFB9" stroke-dasharray="2.91" stroke-linecap="round" stroke-linejoin="round" stroke-width="1.5" d="M117.19 56.75v56.72"/><path stroke="#00FFB9" stroke-linecap="round" stroke-linejoin="round" stroke-width="1.5" d="M117.19 114.92v1.5"/><circle cx="117.19" cy="52.34" r="2.26" fill="#00FFB9" fill-rule="nonzero"/><path stroke="#00FFB9" stroke-linecap="round" stroke-linejoin="round" stroke-width="1.5" d="M54.76 26.05l9.85 1.64-1.64 11.51M66.14 227.61l-2.61-7.79 7.73-2.61M241 81.47a125.61 125.61 0 0 0-38.47-58.93M.78 149.28a124.91 124.91 0 0 0 21.75 51.81" opacity=".3"/></g></svg>