<svg xmlns="http://www.w3.org/2000/svg" width="300" height="300" viewBox="0 0 300 300"><g fill="none" fill-rule="evenodd" stroke-linecap="round" stroke-linejoin="round" stroke-width="1.5" transform="translate(38 48)"><path stroke="#FFF" d="M7.09 155.71v-2.39m50.68 0v2.39M7.09 184.46v-2.88m50.68 0v2.88M73.87 66.83h-4.16c-11.58 0-21-10.2-21-22.79s9.39-22.78 21-22.78a19.32 19.32 0 0 1 8 1.7 18.46 18.46 0 0 1 15.9-9.56 17.62 17.62 0 0 1 7.18 1.6C104.93 6.58 113.08.86 122.48.86c11.59 0 21.32 8.74 23.91 20.48.46 0 .93-.05 1.39-.05 11.58 0 21 10.2 21 22.78 0 12.58-9.38 22.79-21 22.79h-4.54M79.49 66.83h-.75"/><path stroke="#00FFB9" d="M113.95 42l17.79 24.83h-11.6v30l6.3 6.3M100.34 66.83h-11.6l21.5-30M110.24 84.83v40.5l-9 9h-16.5"/><circle cx="131.24" cy="105.83" r="4.5" stroke="#00FFB9"/><path stroke="#FFF" d="M176.13 134.26l7.89-7.43h31.56l7.43 7.43"/><path stroke="#00FFB9" d="M202.74 203.87h-67v-48.13M168.69 140.74h54.32v63.13h-10.77M64.87 204.17H0V188.6h64.87v15.57zm0-44.83H0v15.56h64.87v-15.56zm-30.13-29.27H0v15.57h64.87v-11.56l-30.13-4.01z"/><path fill="#1E1E1E" fill-rule="nonzero" stroke="#00FFB9" d="M7.68 138.71h2.03"/><path stroke="#FFF" d="M7.06 164.09V169m5.14-4.93V169m5.14-4.93V169m5.13-4.93V169"/><path stroke="#00FFB9" stroke-dasharray="3" d="M167.24 167.33l-15-15v-46.5l-15-15M92.24 111.83h-19.5l-27 27"/><path stroke="#FFF" d="M98.24 84.83h-45l-16.5 16.5"/><circle cx="33.74" cy="104.33" r="4.5" stroke="#FFF"/><path stroke="#00FFB9" d="M152.24 84.83l14.25 14.25v14.25" opacity=".3"/><path stroke="#00FFB9" stroke-dasharray="3" d="M87.74 155.33h19.5l15-15" opacity=".3"/><path stroke="#00FFB9" d="M117.5 137.64l7.48-.51.49 7.41" opacity=".3"/></g></svg>