<svg xmlns="http://www.w3.org/2000/svg" width="300" height="300" viewBox="0 0 300 300"><g fill="none" fill-rule="evenodd" stroke-linecap="round" stroke-linejoin="round" stroke-width="1.5" transform="translate(14 18)"><path stroke="#FFF" d="M43.25 149.79v36.2H.31V98.78h42.94v34.12"/><path stroke="#00FFB9" d="M6.89 172.57h32.13"/><path stroke="#FFF" d="M96.61 80.56H63.7V62.57M121.3 15.11h49.36v65.45h-51.83"/><path stroke="#00FFB9" d="M111.9.42V35.8h-9.19v14.93L87.78 35.8h-35.6V.42z"/><path stroke="#FFF" d="M188.77 153.08h57.59l16.46-64.18 9.87-4.9m-49.55 54.3h-41l-6.58-34.56h74m-19.66 34.53h-1.26M145.57 177.76h34.97v24.14"/><path stroke="#00FFB9" d="M151.23 229.67H75.22v-51.91h44.43"/><path stroke="#FFF" d="M132.82 236.25v26.33m4.93 0h.83m-17.28-26.33v26.33h-5.76M188.77 254.35h-29.62v-44.43h32.91v26.12M170.66 259.29v3.29M180.54 259.29v3.29"/><path stroke="#00FFB9" stroke-dasharray="3" d="M32.44 141.56H63.7l29.62 29.62M124.59 187.64l33.73-33.74h9.05M99.91 72.45l32.08 32.09h27.16"/><circle cx="233.2" cy="164.6" r="6.58" stroke="#00FFB9"/><circle cx="201.93" cy="164.6" r="6.58" stroke="#00FFB9"/><path stroke="#00FFB9" d="M25.11 44.43h16.5" opacity=".3"/><path stroke="#FFF" d="M21.44 202.12v-3.05M64.23 222.29H21.44v-12.95"/><g stroke="#00FFB9" opacity=".3"><path d="M212.14 177.76v1.5"/><path stroke-dasharray="3.19" d="M212.14 182.46v36.74"/><path d="M212.14 220.79v1.5h-1.5"/><path stroke-dasharray="2.64" d="M208 222.29h-3.95"/><path d="M202.73 222.29h-1.5"/></g><path stroke="#00FFB9" d="M212.14 92.1v2.45M182.89 53.6h29.25v26.96"/><path stroke="#00FFB9" d="M21.44 88.44V65.51L33.66 53.6h46.5" opacity=".3"/></g></svg>