<svg xmlns="http://www.w3.org/2000/svg" width="800" height="411" viewBox="0 0 800 411"><g fill="none" fill-rule="evenodd"><path stroke="#00FFB7" stroke-linecap="round" stroke-linejoin="round" stroke-width="1.762" d="M1 1v25M1 59v25M1 169v25M9 169v25M17 169v25M26 169v25M34 169v25M42 169v25M51 169v25M59 169v25M67 169v25M76 169v25M84 169v25M92 169v25M100 169v25M109 169v25M117 169v25M125 169v25M134 169v25M142 169v25M150 169v25M159 169v25M167 169v25M175 169v25M183 169v25M192 169v25M200 169v25M208 169v25M217 169v25M225 169v25M233 169v25M242 169v25M250 169v25M258 169v25M266 169v25M275 169v25M283 169v25M291 169v25M300 169v25M308 169v25M316 169v25M325 169v25M333 169v25M341 169v25M349 169v25M358 169v25M366 169v25M374 169v25M383 169v25M391 169v25M1 113v25M9 113v25M17 113v25M26 113v25M34 113v25M42 113v25M50 113v25M58 113v25M67 113v25M1 223v25M9 223v25M17 223v25M26 223v25M34 223v25M42 223v25M50 223v25M59 223v25M67 223v25M75 223v25M83 223v25M92 223v25M100 223v25M108 223v25M116 223v25M125 223v25M133 223v25M141 223v25M149 223v25M157 223v25M166 223v25M174 223v25M182 223v25M190 223v25M199 223v25M207 223v25M215 223v25M223 223v25M232 223v25M240 223v25M248 223v25M256 223v25M265 223v25M273 223v25M281 223v25M289 223v25M298 223v25M306 223v25M314 223v25M322 223v25M331 223v25M339 223v25M347 223v25M355 223v25M363 223v25M372 223v25M380 223v25M388 223v25M396 223v25M405 223v25M413 223v25M421 223v25M429 223v25M438 223v25M446 223v25M454 223v25M462 223v25M471 223v25M479 223v25M487 223v25M495 223v25M504 223v25M512 223v25M520 223v25M528 223v25M537 223v25"/><path stroke="#FFF" stroke-linecap="round" stroke-linejoin="round" stroke-width="1.762" d="M1 282v25M9 282v25M17 282v25M25 282v25M34 282v25M42 282v25M50 282v25M58 282v25M66 282v25M75 282v25M83 282v25M91 282v25M99 282v25M107 282v25M116 282v25M124 282v25M132 282v25M140 282v25M148 282v25M157 282v25M165 282v25M173 282v25M181 282v25M189 282v25M198 282v25M206 282v25M214 282v25M222 282v25M230 282v25M239 282v25M247 282v25M255 282v25M263 282v25M271 282v25M280 282v25M288 282v25M296 282v25M304 282v25M312 282v25M321 282v25M329 282v25M337 282v25M345 282v25M353 282v25M362 282v25M370 282v25M378 282v25M386 282v25M394 282v25M403 282v25M411 282v25M419 282v25M427 282v25M435 282v25M444 282v25M452 282v25M460 282v25M468 282v25M476 282v25M485 282v25M493 282v25M501 282v25M509 282v25M517 282v25M526 282v25M534 282v25M542 282v25M550 282v25M558 282v25M567 282v25M575 282v25M583 282v25M591 282v25M599 282v25M608 282v25M616 282v25M624 282v25M632 282v25M640 282v25M649 282v25M657 282v25M665 282v25M673 282v25M681 282v25M690 282v25M698 282v25M706 282v25M714 282v25M722 282v25M731 282v25M739 282v25M747 282v25M755 282v25M763 282v25M772 282v25"/><path stroke="#FFF" stroke-dasharray="3.524" stroke-linecap="round" stroke-linejoin="round" stroke-width="1.175" d="M8 14h52M9 72h49M75 125h54M397 182h13M542 238h13"/><text font-family="AndaleMono, Andale Mono" font-size="16.446" transform="translate(1 1)"><tspan x="70" y="19" fill="#00FFB7">Bi</tspan> <tspan x="89.739" y="19" fill="#00FFB7" letter-spacing="-.115">t</tspan> <tspan x="99.493" y="19" fill="#00FFB7" letter-spacing="-.378">c</tspan> <tspan x="108.984" y="19" fill="#00FFB7">oin</tspan> <tspan x="138.593" y="19" fill="#FFF"> - 7txn/s</tspan></text><text font-family="AndaleMono, Andale Mono" font-size="16.446" transform="translate(1 1)"><tspan x="70" y="78" fill="#00FFB7">Ethereum</tspan> <tspan x="148.956" y="78" fill="#FFF"> - 14txn/s</tspan></text><text font-family="AndaleMono, Andale Mono" font-size="16.446" transform="translate(1 1)"><tspan x="140" y="129" fill="#00FFB7">Visa</tspan> <tspan x="179.478" y="129" fill="#FFF"> - 65,000 txn/s</tspan></text><text font-family="AndaleMono, Andale Mono" font-size="16.446" transform="translate(1 1)"><tspan x="420" y="186" fill="#00FFB7">Google </tspan> <tspan x="489.086" y="186" fill="#FFF">- 344,000 ads/s</tspan></text><text fill="#F1FDFB" font-family="AndaleMono, Andale Mono" font-size="16.446" transform="translate(1 1)"><tspan x="609.697" y="376">710,000 txn/s</tspan></text><text font-family="AndaleMono, Andale Mono" font-size="16.446" transform="translate(1 1)"><tspan x="561" y="242" fill="#00FFB7">N</tspan> <tspan x="570.869" y="242" fill="#00FFB7" letter-spacing="-.115">A</tspan> <tspan x="580.624" y="242" fill="#00FFB7">S</tspan> <tspan x="590.493" y="242" fill="#00FFB7" letter-spacing="-.28">DA</tspan> <tspan x="609.673" y="242" fill="#00FFB7">Q </tspan> <tspan x="629.412" y="242" fill="#FFF">- 500,000 txn/s</tspan></text><path fill="#B3B3B3" d="M61 72.5a2.5 2.5 0 1 0-5 0 2.5 2.5 0 0 0 5 0M61 13.5a2.5 2.5 0 1 0-5 0 2.5 2.5 0 0 0 5 0M132 124.5a2.5 2.5 0 1 0-5 0 2.5 2.5 0 0 0 5 0M411 181.5a2.5 2.5 0 1 0-5 0 2.5 2.5 0 0 0 5 0M555 237.5a2.5 2.5 0 1 0-5 0 2.5 2.5 0 0 0 5 0"/><path fill="#FFF" d="M753 372.5a2.5 2.5 0 1 0-4.999 0 2.5 2.5 0 0 0 4.999 0"/><path stroke="#FFF" stroke-linecap="round" stroke-linejoin="round" stroke-width="1.175" d="M785.146 294H799v70.451L789.958 373H750M780 294h.875"/><g fill="#00FFB7"><path d="M608 330h4.459v19.19H630l-3.649 3.81H608zM554.067 343.726H544.5v-.003a7.145 7.145 0 0 1-.188.003c-3.831 0-6.937-3.073-6.937-6.863 0-3.79 3.106-6.863 6.938-6.863.062 0 .125 0 .187.002V330H561l-4.875 4.452h-11.817a2.422 2.422 0 0 0-2.433 2.41 2.422 2.422 0 0 0 2.433 2.412h10.317v.022c3.568.284 6.375 3.238 6.375 6.841 0 3.79-3.106 6.863-6.938 6.863-.189 0-.376-.008-.562-.022V353H537l5.25-4.452h11.817a2.422 2.422 0 0 0 2.433-2.41 2.422 2.422 0 0 0-2.433-2.412zM577.125 330.004V330h15.75v.004c2.233.094 4.025 1.868 4.121 4.077H597v14.467h-.004c.003.062.004.124.004.186 0 2.294-1.83 4.165-4.125 4.262V353h-15.75v-.004c-2.295-.097-4.125-1.968-4.125-4.262 0-.062.001-.124.004-.186H573v-14.467h.004c.096-2.209 1.888-3.983 4.121-4.077zm2.953 4.08a2.69 2.69 0 0 0-2.575 2.564h-.003v9.1h.003a2.689 2.689 0 0 0 2.576 2.798v.002h9.843v-.002a2.689 2.689 0 0 0 2.575-2.798h.003v-9.1h-.003a2.69 2.69 0 0 0-2.575-2.565v-.002h-9.844v.002zM646.5 336.306v4.452h15v-4.452c0-1.434-1.175-2.596-2.625-2.596h-9.75c-1.45 0-2.625 1.162-2.625 2.596zm15 16.694v-8.903h-15V353H642v-18.548h.004a4.292 4.292 0 0 1-.004-.186c0-2.356 1.93-4.266 4.313-4.266.062 0 .125.001.187.004V330h15.375v.004c2.295.097 4.125 1.968 4.125 4.262 0 .062-.001.124-.004.186H666V353h-4.5zM717.5 336.306v4.452h15v-4.452c0-1.434-1.175-2.596-2.625-2.596h-9.75c-1.45 0-2.625 1.162-2.625 2.596zm15 16.694v-8.903h-15V353H713v-18.548h.004a4.292 4.292 0 0 1-.004-.186c0-2.356 1.93-4.266 4.313-4.266.062 0 .125.001.187.004V330h15.375v.004c2.295.097 4.125 1.968 4.125 4.262 0 .062-.001.124-.004.186H737V353h-4.5zM696.5 347.433V330h4.5v23h-4.5v-.038l-15-17.027V353H677v-23h4.5z"/></g></g></svg>