<svg xmlns="http://www.w3.org/2000/svg" width="300" height="300" viewBox="0 0 300 300"><g fill="none" fill-rule="evenodd" transform="translate(32 31)"><path stroke="#00FFB9" stroke-linecap="round" stroke-linejoin="round" stroke-width="1.5" d="M46.89 77.61c-21.33 35.985-13.009 82.173 19.54 108.45"/><path stroke="#FFF" stroke-linecap="round" stroke-linejoin="round" stroke-width="1.5" d="M221 119.55v1a101.76 101.76 0 0 1-5.15 32.06"/><g stroke="#00FFB9" stroke-linecap="round" stroke-linejoin="round" stroke-width="1.5" opacity=".3"><path stroke-dasharray="3" d="M144 2.88a121.45 121.45 0 0 0-49-.11"/><path d="M198.84 30.43a120.15 120.15 0 0 0-45.68-25.26"/></g><g opacity=".4"><path stroke="#FFF" stroke-linecap="round" stroke-linejoin="round" stroke-width="1.5" d="M64.08 206.05a101.87 101.87 0 0 0 98.26 6.7"/><path fill="#FFF" fill-rule="nonzero" d="M62.86 207.94a2.26 2.26 0 1 1 3.12-.67 2.25 2.25 0 0 1-3.12.67z"/></g><path stroke="#00FFB9" stroke-dasharray="3" stroke-linecap="round" stroke-linejoin="round" stroke-width="1.5" d="M17.53 120.57A101.56 101.56 0 0 0 55.71 200"/><path stroke="#00FFB9" stroke-linecap="round" stroke-linejoin="round" stroke-width="1.5" d="M17.53 120.57a100.68 100.68 0 0 1 17.2-57.08L25.31 58 61.4 38.38 59.05 76"/><circle cx="17.53" cy="120.57" r="2.26" fill="#00FFB9" fill-rule="nonzero"/><path stroke="#00FFB9" stroke-linecap="round" stroke-linejoin="round" stroke-width="1.5" d="M203.21 126.4c.127-1.933.193-3.877.2-5.83v-2.39M214.39 183.53L178.3 200l3.14-40.8 8.77 6.62a83.64 83.64 0 0 0 12.09-31.54"/><path fill="#00FFB9" fill-rule="nonzero" d="M213.45 181.47a2.26 2.26 0 1 1 1.885 4.108 2.26 2.26 0 0 1-1.885-4.108z"/><path stroke="#FFF" stroke-linecap="round" stroke-linejoin="round" stroke-width="1.5" d="M234.34 112.82l-13.67-6.18-.7-.6A101.8 101.8 0 0 0 78 27.57"/><path fill="#FFF" fill-rule="nonzero" d="M235.27 110.77a2.26 2.26 0 1 1-3 1.12 2.25 2.25 0 0 1 3-1.12z"/><path stroke="#FFF" stroke-linecap="round" stroke-linejoin="round" stroke-width="1.5" d="M234.11 129.42c.267-3.28.403-6.593.41-9.94 0-2 0-4-.15-5.95"/><path stroke="#00FFB9" stroke-dasharray="3" stroke-linecap="round" stroke-linejoin="round" stroke-width="1.5" d="M225.05 166.37a119.45 119.45 0 0 0 8.37-30.55" opacity=".3"/><path stroke="#FFF" stroke-linecap="round" stroke-linejoin="round" stroke-width="1.5" d="M119.07 181.17a60.51 60.51 0 0 1-26.57-6.1l-10 21.09a83.79 83.79 0 0 0 36.59 8.35 84.86 84.86 0 0 0 18.91-2.13l-5.33-22.75a60.88 60.88 0 0 1-13.6 1.54z"/><path stroke="#00FFB9" stroke-dasharray="3" stroke-linecap="round" stroke-linejoin="round" stroke-width="1.5" d="M59.55 137.4A61.38 61.38 0 0 0 82 169M114.36 36.31a81.89 81.89 0 0 0-29.59 7.41" opacity=".3"/><path stroke="#FFF" stroke-linecap="round" stroke-linejoin="round" stroke-width="1.5" d="M133.17 61.24a60.86 60.86 0 0 0-53.67 12.9"/><path fill="#FFF" fill-rule="nonzero" d="M133.69 59a2.26 2.26 0 1 1-.97 4.415 2.26 2.26 0 0 1 .97-4.415z"/><path stroke="#00FFB9" stroke-linecap="round" stroke-linejoin="round" stroke-width="1.5" d="M144.63 104.94a22.52 22.52 0 0 0-12.07-11.29c-9-3.69-16.95-1.44-19.86 5.61-3.17 7.7 2.72 13.56 6.25 17.06l7 7.39c5.22 5.28 9.61 10.66 6.35 18.55-3.26 7.89-12.58 10.62-22.62 6.48a26.09 26.09 0 0 1-14.8-14.57m37.71-40.52l2.66-6.45m-27.76 67.32l2.36-5.73"/><path stroke="#00FFB9" stroke-dasharray="3" stroke-linecap="round" stroke-linejoin="round" stroke-width="1.5" d="M12.05 171a119.92 119.92 0 0 0 95.44 67.72" opacity=".3"/><path stroke="#FFF" stroke-dasharray="3" stroke-linecap="round" stroke-linejoin="round" stroke-width="1.5" d="M1.1 107.26a121.05 121.05 0 0 0-.62 12.25A119.5 119.5 0 0 0 8 161.28" opacity=".2"/><path stroke="#00FFB9" stroke-linecap="round" stroke-linejoin="round" stroke-width="1.5" d="M159.86 74.67l-.19-.05M166.32 77.38c-1-.51-2.08-1-3.16-1.44M163.28 58.42a45.47 45.47 0 0 1 18.11 16.38c1.6-2.13 3.19-4.27 4.78-6.4a93.42 93.42 0 0 1 16 38.53c-3.52-9.76-8.5-17.28-16.68-23.48l-3.29 4.41a115 115 0 0 0-13.2-9.08"/></g></svg>