<svg xmlns="http://www.w3.org/2000/svg" width="800" height="411" viewBox="0 0 800 411"><g fill="none" fill-rule="evenodd"><text fill="#00FFB7" font-family="AndaleMono, Andale Mono" font-size="16.029" transform="translate(-2 -3)"><tspan x="42.706" y="15">600</tspan></text><text fill="#00FFB7" font-family="AndaleMono, Andale Mono" font-size="16.029" transform="translate(-2 -3)"><tspan x="42.882" y="75.447">500</tspan></text><text fill="#00FFB7" font-family="AndaleMono, Andale Mono" font-size="16.029" transform="translate(-2 -3)"><tspan x="43.074" y="135.893">400</tspan></text><text fill="#00FFB7" font-family="AndaleMono, Andale Mono" font-size="16.029" transform="translate(-2 -3)"><tspan x="43.122" y="196.34">300</tspan></text><text fill="#00FFB7" font-family="AndaleMono, Andale Mono" font-size="16.029" transform="translate(-2 -3)"><tspan x="43.17" y="256.786">200</tspan></text><text fill="#00FFB7" font-family="AndaleMono, Andale Mono" font-size="16.029" transform="translate(-2 -3)"><tspan x="44.837" y="317.233">100</tspan></text><text fill="#00FFB7" font-family="AndaleMono, Andale Mono" font-size="16.029" transform="translate(-2 -3)"><tspan x="95" y="347">10</tspan></text><text fill="#00FFB7" font-family="AndaleMono, Andale Mono" font-size="16.029" transform="translate(-2 -3)"><tspan x="162" y="347">20</tspan></text><text fill="#00FFB7" font-family="AndaleMono, Andale Mono" font-size="16.029" transform="translate(-2 -3)"><tspan x="236" y="347">30</tspan></text><text fill="#00FFB7" font-family="AndaleMono, Andale Mono" font-size="16.029" transform="translate(-2 -3)"><tspan x="312" y="347">40</tspan></text><text fill="#00FFB7" font-family="AndaleMono, Andale Mono" font-size="16.029" transform="translate(-2 -3)"><tspan x="386" y="347">50</tspan></text><text fill="#00FFB7" font-family="AndaleMono, Andale Mono" font-size="16.029" transform="translate(-2 -3)"><tspan x="461" y="347">60</tspan></text><text fill="#00FFB7" font-family="AndaleMono, Andale Mono" font-size="16.029" transform="translate(-2 -3)"><tspan x="536" y="347">70</tspan></text><text fill="#00FFB7" font-family="AndaleMono, Andale Mono" font-size="16.029" transform="translate(-2 -3)"><tspan x="610" y="347">80</tspan></text><text fill="#00FFB7" font-family="AndaleMono, Andale Mono" font-size="16.029" transform="translate(-2 -3)"><tspan x="685" y="347">90</tspan></text><text fill="#00FFB7" font-family="AndaleMono, Andale Mono" font-size="16.029" transform="translate(-2 -3)"><tspan x="760" y="347">100</tspan></text><text fill="#F1FDFB" font-family="AndaleMono, Andale Mono" font-size="13.74" transform="rotate(-90 5.305 147.807)"><tspan x="-46.195" y="152.807">Finality (ms)</tspan></text><text fill="#F1FDFB" font-family="AndaleMono, Andale Mono" font-size="13.739" transform="translate(-2 -3)"><tspan x="340.929" y="384.032">Nodes (1,000’s)</tspan></text><path stroke="#FFF" stroke-dasharray="3.435" stroke-linecap="round" stroke-linejoin="round" stroke-width="1.145" d="M80.107 332.692c0-2.29 10.305-93.886 26.334-128.235 16.03-34.349 57.247-87.016 176.323-123.655 119.075-36.638 290.245-63.545 483.742-73.85"/><path stroke="#FFF" stroke-linecap="round" stroke-linejoin="round" stroke-width="1.145" d="M764.216 2.096l4.857 4.857-4.857 4.856"/><path stroke="#00FFB7" stroke-linecap="round" stroke-linejoin="round" stroke-width="1.717" d="M122.47 348.721h14.885m4.58 0h4.58M191.167 348.721h24.044l11.45 11.45h45.798M294.213 332.692l12.022-12.022h488.469M28.584 329.257v-30.914l8.015-8.015v-16.029M80.107 213.617l8.587-10.305v-26.334l-8.587-8.587v-9.732M80.107 13.25V5.235m0 70.987V25.844"/></g></svg>