<svg xmlns="http://www.w3.org/2000/svg" width="800" height="411" viewBox="0 0 800 411"><g fill="none" fill-rule="evenodd"><text fill="#00FFB7" font-family="AndaleMono, Andale Mono" font-size="15.873" transform="translate(6)"><tspan x="24" y="14">10</tspan></text><text fill="#00FFB7" font-family="AndaleMono, Andale Mono" font-size="15.873" transform="translate(6)"><tspan x="28" y="48">9</tspan></text><text fill="#00FFB7" font-family="AndaleMono, Andale Mono" font-size="15.873" transform="translate(6)"><tspan x="28" y="82">8</tspan></text><text fill="#00FFB7" font-family="AndaleMono, Andale Mono" font-size="15.873" transform="translate(6)"><tspan x="28" y="116">7</tspan></text><text fill="#00FFB7" font-family="AndaleMono, Andale Mono" font-size="15.873" transform="translate(6)"><tspan x="28" y="150">6</tspan></text><text fill="#00FFB7" font-family="AndaleMono, Andale Mono" font-size="15.873" transform="translate(6)"><tspan x="28" y="184">5</tspan></text><text fill="#00FFB7" font-family="AndaleMono, Andale Mono" font-size="15.873" transform="translate(6)"><tspan x="28" y="218">4</tspan></text><text fill="#00FFB7" font-family="AndaleMono, Andale Mono" font-size="15.873" transform="translate(6)"><tspan x="28" y="252">3</tspan></text><text fill="#00FFB7" font-family="AndaleMono, Andale Mono" font-size="15.873" transform="translate(6)"><tspan x="28" y="285">2</tspan></text><text fill="#00FFB7" font-family="AndaleMono, Andale Mono" font-size="15.873" transform="translate(6)"><tspan x="28" y="319">1 </tspan></text><text fill="#00FFB7" font-family="AndaleMono, Andale Mono" font-size="15.873" letter-spacing=".006" transform="translate(6)"><tspan x="76" y="355">1</tspan></text><text fill="#F1FDFB" font-family="AndaleMono, Andale Mono" font-size="13.606" transform="rotate(-90 11.838 158.037)"><tspan x="-52.184" y="165.037">TPS (millions)</tspan></text><text fill="#F1FDFB" font-family="AndaleMono, Andale Mono" font-size="13.606" letter-spacing="-.694" transform="translate(6 1)"><tspan x="338.521" y="381.5">Year (starting 2018)</tspan></text><path stroke="#FFF" stroke-dasharray="3.401" stroke-linecap="round" stroke-linejoin="round" stroke-width="1.134" d="M71.022 328.088s252.972-9.78 556.05-315.391l10.389-10.39"/><path stroke="#FFF" stroke-linecap="round" stroke-linejoin="round" stroke-width="1.134" d="M631.407 1.028l7.359.145-.143 7.305"/><path stroke="#00FFB7" stroke-linecap="round" stroke-linejoin="round" stroke-width="1.701" d="M585.522 370.874h15.887m4.888 0h4.889M658.847 370.874h25.664l12.221 12.224h48.884M199.341 339.701l12.832-12.835h427.121M8.695 343.98v-33.006l8.555-8.557v-17.114M61.245 16.364V7.807m0 75.792V29.81m0 154.028v10.391l9.166 9.169v28.116l-9.166 11.002M793.888 326.255h6.11"/><text fill="#00FFB7" font-family="AndaleMono, Andale Mono" font-size="15.873" letter-spacing=".006" transform="translate(6)"><tspan x="144" y="355">2</tspan></text><text fill="#00FFB7" font-family="AndaleMono, Andale Mono" font-size="15.873" letter-spacing=".006" transform="translate(6)"><tspan x="216" y="355">3</tspan></text><text fill="#00FFB7" font-family="AndaleMono, Andale Mono" font-size="15.873" letter-spacing=".006" transform="translate(6)"><tspan x="287" y="355">4</tspan></text><text fill="#00FFB7" font-family="AndaleMono, Andale Mono" font-size="15.873" letter-spacing=".006" transform="translate(6)"><tspan x="360" y="355">5</tspan></text><text fill="#00FFB7" font-family="AndaleMono, Andale Mono" font-size="15.873" letter-spacing=".006" transform="translate(6)"><tspan x="434" y="355">6</tspan></text><text fill="#00FFB7" font-family="AndaleMono, Andale Mono" font-size="15.873" letter-spacing=".006" transform="translate(6)"><tspan x="504" y="355">7</tspan></text><text fill="#00FFB7" font-family="AndaleMono, Andale Mono" font-size="15.873" letter-spacing=".006" transform="translate(6)"><tspan x="576" y="355">8</tspan></text><text fill="#00FFB7" font-family="AndaleMono, Andale Mono" font-size="15.873" letter-spacing=".006" transform="translate(6)"><tspan x="648" y="355">9</tspan></text><text fill="#00FFB7" font-family="AndaleMono, Andale Mono" font-size="15.873" letter-spacing=".006" transform="translate(6)"><tspan x="720" y="355">10</tspan></text></g></svg>