<svg xmlns="http://www.w3.org/2000/svg" width="800" height="411" viewBox="0 0 800 411"><g fill="none" fill-rule="evenodd"><path stroke="#FFF" stroke-linecap="round" stroke-linejoin="round" stroke-width="1.214" d="M2.731 205.463H.91v-1.821"/><path stroke="#FFF" stroke-dasharray="3.7 3.7" stroke-linecap="round" stroke-linejoin="round" stroke-width="1.214" d="M.91 199.941V90.773"/><path stroke="#FFF" stroke-linecap="round" stroke-linejoin="round" stroke-width="1.214" d="M.91 88.923v-1.821h1.821M2.731 255.843H.91v1.821"/><path stroke="#FFF" stroke-dasharray="3.55 3.55" stroke-linecap="round" stroke-linejoin="round" stroke-width="1.214" d="M.91 261.213v111.823"/><path stroke="#FFF" stroke-linecap="round" stroke-linejoin="round" stroke-width="1.214" d="M.91 374.811v1.821h1.821"/><path stroke="#FFF" stroke-linecap="round" stroke-linejoin="round" stroke-width="2.428" d="M150.228 65.251H57.967v-8.997"/><path stroke="#FFF" stroke-linecap="round" stroke-linejoin="round" stroke-width="2.428" d="M162.454 72.447l7.197-7.196h169.954V5.766H68.892L57.966 16.692v31.563"/><path stroke="#FFF" stroke-linecap="round" stroke-linejoin="round" stroke-width="1.214" d="M33.687 205.463h-1.82"/><path stroke="#FFF" stroke-dasharray="3.238 3.238" stroke-linecap="round" stroke-linejoin="round" stroke-width="1.214" d="M28.63 205.463H4.35"/><path stroke="#FFF" stroke-dasharray="3.553 3.553" stroke-linecap="round" stroke-linejoin="round" stroke-width="1.214" d="M6.284 87.102H146.63"/><path stroke="#FFF" stroke-linecap="round" stroke-linejoin="round" stroke-width="1.214" d="M148.407 87.102h1.821l1.288-1.288M151.823 85.506l1.288-1.288"/><path stroke="#FFF" stroke-linecap="round" stroke-linejoin="round" stroke-width="2.428" d="M268.589 174.507h20.03M82.246 233.991H59.181v-59.484h201.517M317.754 174.507h21.851v48.559l-10.521 10.925H100.455l-8.497 8.498M149.014 406.374H68.083l-8.902-8.902V346.89h26.707M158.927 406.374h-.202M104.097 346.89h235.508v59.484H169.044"/><path stroke="#00FFB7" stroke-linecap="round" stroke-linejoin="round" stroke-width="1.821" d="M661.305 67.679h125.848l11.734-11.736-.404-47.748H686.798M618.816 67.679h27.921"/><path stroke="#00FFB7" stroke-linecap="round" stroke-linejoin="round" stroke-width="1.821" d="M623.672 60.395H520.486V.911h189.377"/><path stroke="#FFF" stroke-dasharray="3.642" stroke-linecap="round" stroke-linejoin="round" stroke-width="1.214" d="M355.994 35.509h145.675M355.994 204.25h145.675M355.994 376.632h145.675"/><path stroke="#FFF" stroke-linecap="round" stroke-linejoin="round" stroke-width="1.214" d="M34.294 200.313l5.151 5.15-5.151 5.15M499.241 30.359l5.151 5.15-5.151 5.149M499.241 199.099l5.151 5.15-5.151 5.15M499.241 371.482l5.151 5.15-5.151 5.149M34.294 371.482l5.151 5.15-5.151 5.149M84.674 252.2l-1.288 1.289"/><path stroke="#FFF" stroke-dasharray="3.55 3.55" stroke-linecap="round" stroke-linejoin="round" stroke-width="1.214" d="M80.812 255.843H4.506"/><path stroke="#FFF" stroke-dasharray="3.238 3.238" stroke-linecap="round" stroke-linejoin="round" stroke-width="1.214" d="M5.968 376.632h24.28"/><path stroke="#FFF" stroke-linecap="round" stroke-linejoin="round" stroke-width="1.214" d="M31.866 376.632h1.821"/><text fill="#F1FDFB" font-family="AndaleMono, Andale Mono" font-size="16.995" transform="translate(4)"><tspan x="157.153" y="40.04">SHA-256</tspan></text><text fill="#00FFB7" font-family="AndaleMono, Andale Mono" font-size="16.995" transform="translate(4)"><tspan x="543.188" y="31.749">hash</tspan></text><text fill="#00FFB7" font-family="AndaleMono, Andale Mono" font-size="16.995" letter-spacing="-.391" transform="translate(4)"><tspan x="543.188" y="47.283">count</tspan></text><text fill="#00FFB7" font-family="AndaleMono, Andale Mono" font-size="16.995" transform="translate(4)"><tspan x="543.496" y="372.476">hash</tspan></text><text fill="#00FFB7" font-family="AndaleMono, Andale Mono" font-size="16.995" transform="translate(4)"><tspan x="543.496" y="200.88">hash</tspan></text><text fill="#00FFB7" font-family="AndaleMono, Andale Mono" font-size="16.995" letter-spacing="-.391" transform="translate(4)"><tspan x="543.496" y="388.258">count</tspan></text><text fill="#00FFB7" font-family="AndaleMono, Andale Mono" font-size="16.995" letter-spacing="-.391" transform="translate(4)"><tspan x="543.496" y="216.662">count</tspan></text><text fill="#F1FDFB" font-family="AndaleMono, Andale Mono" font-size="16.995" transform="translate(4)"><tspan x="157.153" y="209.961">SHA-256</tspan></text><text fill="#F1FDFB" font-family="AndaleMono, Andale Mono" font-size="16.995" transform="translate(4)"><tspan x="157.457" y="381.76">SHA-256</tspan></text><path stroke="#00FFB7" stroke-dasharray="3.642" stroke-linecap="round" stroke-linejoin="round" stroke-width="1.214" d="M718.361.911h63.126"/><path stroke="#00FFB7" stroke-linecap="round" stroke-linejoin="round" stroke-width="1.821" d="M646.737 72.534h14.568v-9.712h-14.568zM703.794 410.016h83.359l11.734-11.736-.404-45.32h-24.28M709.863 345.676H520.486v57.056h103.186l7.284 7.284h16.995"/><path stroke="#00FFB7" stroke-dasharray="3.642" stroke-linecap="round" stroke-linejoin="round" stroke-width="1.214" d="M655.842 410.016h41.275"/><path stroke="#00FFB7" stroke-linecap="round" stroke-linejoin="round" stroke-width="1.821" d="M603.642 176.025h194.841l.404 52.301-11.734 11.735h-40.871l-6.677-6.677h-11.532"/><path stroke="#00FFB7" stroke-linecap="round" stroke-linejoin="round" stroke-width="1.821" d="M695.296 232.777h-174.81v-64.036h106.221M755.994 235.205v9.712M709.863 232.777h3.642"/><text fill="#F4FDFB" font-family="AndaleMono, Andale Mono" font-size="16" transform="translate(4)"><tspan x="640" y="30">62f51643c1…</tspan> <tspan x="640" y="48">510144806912</tspan></text><text fill="#FFF" font-family="AndaleMono, Andale Mono" font-size="16" transform="translate(4)"><tspan x="640" y="199">3d039ef62e… </tspan> <tspan x="640" y="217">510145855488</tspan></text><text fill="#F4FDFB" font-family="AndaleMono, Andale Mono" font-size="16" transform="translate(4)"><tspan x="640" y="371">cd43d862d88… </tspan> <tspan x="640" y="389">510146904064</tspan></text></g></svg>